<svg width="6" height="9" viewBox="0 0 6 9" fill="none" xmlns="http://www.w3.org/2000/svg">
<path d="M5.76053 3.92736L2.32755 0.49438C2.25228 0.418492 2.16273 0.358257 2.06407 0.317151C1.9654 0.276046 1.85958 0.254883 1.75269 0.254883C1.6458 0.254883 1.53998 0.276046 1.44131 0.317151C1.34265 0.358257 1.2531 0.418492 1.17783 0.49438C1.02703 0.646081 0.942383 0.851292 0.942383 1.06519C0.942383 1.2791 1.02703 1.48431 1.17783 1.63601L4.04404 4.50222L1.17783 7.36844C1.02703 7.52014 0.942383 7.72535 0.942383 7.93925C0.942383 8.15315 1.02703 8.35837 1.17783 8.51007C1.25348 8.58511 1.34321 8.64448 1.44185 8.68477C1.5405 8.72506 1.64613 8.74548 1.75269 8.74487C1.85925 8.74548 1.96488 8.72506 2.06353 8.68477C2.16217 8.64448 2.2519 8.58511 2.32755 8.51007L5.76053 5.07709C5.83642 5.00182 5.89666 4.91227 5.93776 4.8136C5.97887 4.71494 6.00003 4.60911 6.00003 4.50222C6.00003 4.39534 5.97887 4.28951 5.93776 4.19084C5.89666 4.09218 5.83642 4.00263 5.76053 3.92736Z" fill="#748691"/>
</svg>
