<svg width="21" height="17" viewBox="0 0 21 17" fill="none" xmlns="http://www.w3.org/2000/svg">
<path d="M20.5902 8.1C18.5702 3.41 14.7702 0.5 10.6702 0.5C6.57023 0.5 2.77023 3.41 0.750233 8.1C0.69517 8.22617 0.666748 8.36234 0.666748 8.5C0.666748 8.63766 0.69517 8.77383 0.750233 8.9C2.77023 13.59 6.57023 16.5 10.6702 16.5C14.7702 16.5 18.5702 13.59 20.5902 8.9C20.6453 8.77383 20.6737 8.63766 20.6737 8.5C20.6737 8.36234 20.6453 8.22617 20.5902 8.1ZM10.6702 14.5C7.50023 14.5 4.50023 12.21 2.77023 8.5C4.50023 4.79 7.50023 2.5 10.6702 2.5C13.8402 2.5 16.8402 4.79 18.5702 8.5C16.8402 12.21 13.8402 14.5 10.6702 14.5ZM10.6702 4.5C9.87911 4.5 9.10575 4.7346 8.44795 5.17412C7.79016 5.61365 7.27746 6.23836 6.97471 6.96927C6.67196 7.70017 6.59275 8.50444 6.74709 9.28036C6.90143 10.0563 7.2824 10.769 7.84181 11.3284C8.40122 11.8878 9.11395 12.2688 9.88987 12.4231C10.6658 12.5775 11.4701 12.4983 12.201 12.1955C12.9319 11.8928 13.5566 11.3801 13.9961 10.7223C14.4356 10.0645 14.6702 9.29113 14.6702 8.5C14.6702 7.43913 14.2488 6.42172 13.4987 5.67157C12.7485 4.92143 11.7311 4.5 10.6702 4.5ZM10.6702 10.5C10.2747 10.5 9.88799 10.3827 9.55909 10.1629C9.23019 9.94318 8.97385 9.63082 8.82247 9.26537C8.6711 8.89991 8.63149 8.49778 8.70866 8.10982C8.78583 7.72186 8.97631 7.36549 9.25602 7.08579C9.53572 6.80608 9.89209 6.6156 10.2801 6.53843C10.668 6.46126 11.0701 6.50087 11.4356 6.65224C11.8011 6.80362 12.1134 7.05996 12.3332 7.38886C12.5529 7.71776 12.6702 8.10444 12.6702 8.5C12.6702 9.03043 12.4595 9.53914 12.0844 9.91421C11.7094 10.2893 11.2007 10.5 10.6702 10.5Z" fill="#DD895A"/>
</svg>
