<svg width="139" height="30" viewBox="0 0 139 30" fill="none" xmlns="http://www.w3.org/2000/svg">
<path d="M27 0H3C1.35 0 0.015 1.35 0.015 3L0 30L6 24H27C28.65 24 30 22.65 30 21V3C30 1.35 28.65 0 27 0ZM27 21H4.755L3.87 21.885L3 22.755V3H27V21ZM12.75 18H24V15H15.75L12.75 18ZM18.54 9.195C18.84 8.895 18.84 8.43 18.54 8.13L15.885 5.475C15.585 5.175 15.12 5.175 14.82 5.475L6 14.295V18H9.705L18.54 9.195Z" fill="#DD895A"/>
<path d="M53.1676 15.4545C53.1676 11.1719 50.5085 8.73011 47.0376 8.73011C43.5476 8.73011 40.9077 11.1719 40.9077 15.4545C40.9077 19.718 43.5476 22.179 47.0376 22.179C50.5085 22.179 53.1676 19.7372 53.1676 15.4545ZM50.3615 15.4545C50.3615 18.2287 49.0447 19.7308 47.0376 19.7308C45.0241 19.7308 43.7138 18.2287 43.7138 15.4545C43.7138 12.6804 45.0241 11.1783 47.0376 11.1783C49.0447 11.1783 50.3615 12.6804 50.3615 15.4545ZM54.3494 14.3232H57.4879V22H60.083V14.3232H63.2471V12.1818H54.3494V14.3232ZM64.0869 19.2195C64.1572 21.1371 65.8894 22.1918 68.2481 22.1918C70.6643 22.1918 72.3965 21.1051 72.3965 19.277C72.3965 17.9091 71.4185 17.0526 70.2168 16.9759V16.8736C71.4377 16.5795 72.16 15.8636 72.16 14.8217C72.16 13.1087 70.6771 12.054 68.2737 12.054C66.0748 12.054 64.3681 13.1662 64.3489 14.9304H66.9761C66.9952 14.3551 67.5833 13.9524 68.3951 13.9524C69.2005 13.9524 69.7055 14.3999 69.7055 15.0582C69.7055 15.6527 69.2325 16.0874 68.3887 16.0874H66.9761V17.8707H68.3887C69.2389 17.8707 69.8077 18.3565 69.8077 19.0661C69.8077 19.8459 69.1238 20.2678 68.2353 20.2678C67.3596 20.2678 66.7523 19.8714 66.7268 19.2195H64.0869ZM76.362 15.1989V12.1818H73.7604V22H78.4011C81.0026 22 82.5303 20.6385 82.5367 18.6122C82.5303 16.5476 81.0026 15.1989 78.4011 15.1989H76.362ZM83.5914 22H86.3144V12.1818H83.5914V22ZM76.362 17.3402H78.4011C79.3151 17.3402 79.9607 17.8771 79.9735 18.6314C79.9607 19.3473 79.3151 19.8587 78.4011 19.8587H76.362V17.3402ZM88.1849 22H93.0173C95.4718 22 96.8397 20.9964 96.8397 19.3217C96.8397 18.0305 95.817 17.0078 94.0528 16.88C95.4591 16.6371 96.2964 15.8956 96.2964 14.8345C96.2964 13.1342 94.7943 12.1818 92.3717 12.1818H88.1849V22ZM90.7226 19.9609V17.8196H93.0173C93.7716 17.8196 94.2318 18.2479 94.2318 18.9446C94.2318 19.5774 93.7716 19.9609 93.0173 19.9609H90.7226ZM90.7226 16.2216V14.2656H92.3717C93.2155 14.2656 93.7332 14.63 93.7332 15.2308C93.7332 15.8509 93.241 16.2216 92.4292 16.2216H90.7226Z" fill="#DD895A"/>
<path d="M98.3011 22H107.148V19.718H101.069V16.5923H106.668V14.3104H101.069V11.1911H107.122V8.90909H98.3011V22ZM113.402 22.1918C116.016 22.1918 117.659 20.6577 117.787 18.4013H115.217C115.057 19.4496 114.367 20.0376 113.434 20.0376C112.162 20.0376 111.337 18.9702 111.337 17.0909C111.337 15.2372 112.168 14.1761 113.434 14.1761C114.431 14.1761 115.07 14.8345 115.217 15.8125H117.787C117.671 13.5433 115.952 12.054 113.389 12.054C110.41 12.054 108.569 14.1186 108.569 17.1293C108.569 20.1143 110.378 22.1918 113.402 22.1918ZM118.572 14.3232H121.71V22H124.306V14.3232H127.47V12.1818H118.572V14.3232ZM131.416 15.1989V12.1818H128.814V22H133.455C136.057 22 137.584 20.6385 137.591 18.6122C137.584 16.5476 136.057 15.1989 133.455 15.1989H131.416ZM131.416 17.3402H133.455C134.369 17.3402 135.015 17.8771 135.027 18.6314C135.015 19.3473 134.369 19.8587 133.455 19.8587H131.416V17.3402Z" fill="#33383A"/>
</svg>
